<svg xmlns="http://www.w3.org/2000/svg" xmlns:xlink="http://www.w3.org/1999/xlink" width="1000" zoomAndPan="magnify" viewBox="0 0 750 149.999998" height="200" preserveAspectRatio="xMidYMid meet" version="1.0"><defs><g/></defs><g fill="#f5f7fd" fill-opacity="1"><g transform="translate(6.499075, 111.357635)"><g><path d="M 78.921875 -64 C 83.128906 -64 86.820312 -63.226562 90 -61.6875 C 93.1875 -60.144531 95.664062 -57.875 97.4375 -54.875 C 99.207031 -51.882812 100.09375 -48.265625 100.09375 -44.015625 L 100.09375 0 L 85.671875 0 L 85.671875 -40.015625 C 85.671875 -44.054688 84.628906 -47.109375 82.546875 -49.171875 C 80.460938 -51.234375 77.835938 -52.265625 74.671875 -52.265625 C 70.929688 -52.265625 67.90625 -51.023438 65.59375 -48.546875 C 63.28125 -46.066406 62.125 -42.25 62.125 -37.09375 L 62.125 0 L 47.578125 0 L 47.578125 -39.71875 C 47.578125 -43.832031 46.523438 -46.953125 44.421875 -49.078125 C 42.316406 -51.203125 39.644531 -52.265625 36.40625 -52.265625 C 32.695312 -52.265625 29.675781 -50.984375 27.34375 -48.421875 C 25.019531 -45.859375 23.859375 -41.875 23.859375 -36.46875 L 23.859375 0 L 9.546875 0 L 9.546875 -62.8125 L 23.859375 -62.8125 L 23.859375 -55.078125 C 25.847656 -57.941406 28.351562 -60.144531 31.375 -61.6875 C 34.394531 -63.226562 37.796875 -64 41.578125 -64 C 45.910156 -64 49.664062 -63.15625 52.84375 -61.46875 C 56.03125 -59.78125 58.414062 -57.335938 60 -54.140625 C 62.039062 -57.378906 64.671875 -59.832031 67.890625 -61.5 C 71.117188 -63.164062 74.796875 -64 78.921875 -64 Z M 78.921875 -64 "/></g></g></g><g fill="#f5f7fd" fill-opacity="1"><g transform="translate(108.686008, 111.357635)"><g><path d="M 37.96875 1.1875 C 31.632812 1.1875 25.957031 -0.132812 20.9375 -2.78125 C 15.925781 -5.425781 12.003906 -9.203125 9.171875 -14.109375 C 6.347656 -19.023438 4.9375 -24.8125 4.9375 -31.46875 C 4.9375 -38.039062 6.347656 -43.78125 9.171875 -48.6875 C 12.003906 -53.601562 15.914062 -57.382812 20.90625 -60.03125 C 25.90625 -62.675781 31.59375 -64 37.96875 -64 C 44.375 -64 50.070312 -62.675781 55.0625 -60.03125 C 60.0625 -57.382812 63.976562 -53.601562 66.8125 -48.6875 C 69.644531 -43.78125 71.0625 -38.039062 71.0625 -31.46875 C 71.0625 -24.8125 69.644531 -19.015625 66.8125 -14.078125 C 63.976562 -9.148438 60.050781 -5.375 55.03125 -2.75 C 50.019531 -0.125 44.332031 1.1875 37.96875 1.1875 Z M 37.84375 -10.421875 C 41.457031 -10.421875 44.703125 -11.296875 47.578125 -13.046875 C 50.453125 -14.796875 52.695312 -17.257812 54.3125 -20.4375 C 55.9375 -23.625 56.75 -27.300781 56.75 -31.46875 C 56.75 -35.632812 55.9375 -39.296875 54.3125 -42.453125 C 52.695312 -45.617188 50.453125 -48.078125 47.578125 -49.828125 C 44.703125 -51.578125 41.457031 -52.453125 37.84375 -52.453125 C 34.257812 -52.453125 31.0625 -51.578125 28.25 -49.828125 C 25.4375 -48.078125 23.226562 -45.617188 21.625 -42.453125 C 20.03125 -39.296875 19.234375 -35.632812 19.234375 -31.46875 C 19.234375 -27.300781 20.03125 -23.625 21.625 -20.4375 C 23.226562 -17.257812 25.4375 -14.796875 28.25 -13.046875 C 31.0625 -11.296875 34.257812 -10.421875 37.84375 -10.421875 Z M 37.84375 -10.421875 "/></g></g></g><g fill="#f5f7fd" fill-opacity="1"><g transform="translate(178.279804, 111.357635)"><g><path d="M 42.953125 -64 C 50.035156 -64 55.570312 -62.101562 59.5625 -58.3125 C 63.5625 -54.53125 65.5625 -49.179688 65.5625 -42.265625 L 65.5625 0 L 51.078125 0 L 51.078125 -39.15625 C 51.078125 -43.601562 49.921875 -46.898438 47.609375 -49.046875 C 45.296875 -51.191406 42.332031 -52.265625 38.71875 -52.265625 C 34.382812 -52.265625 30.84375 -50.941406 28.09375 -48.296875 C 25.351562 -45.648438 23.960938 -41.582031 23.921875 -36.09375 L 23.921875 0 L 9.546875 0 L 9.546875 -62.8125 L 23.921875 -62.8125 L 23.921875 -55.390625 C 26.035156 -58.128906 28.726562 -60.25 32 -61.75 C 35.269531 -63.25 38.921875 -64 42.953125 -64 Z M 42.953125 -64 "/></g></g></g><g fill="#f5f7fd" fill-opacity="1"><g transform="translate(245.813102, 111.357635)"><g><path d="M 69.8125 -95.90625 L 69.8125 0 L 56.0625 0 L 55.703125 -9.796875 C 53.910156 -6.179688 51.148438 -3.40625 47.421875 -1.46875 C 43.691406 0.46875 39.457031 1.4375 34.71875 1.4375 C 29.257812 1.4375 24.257812 0.09375 19.71875 -2.59375 C 15.1875 -5.28125 11.597656 -9.097656 8.953125 -14.046875 C 6.316406 -19.003906 5 -24.769531 5 -31.34375 C 5 -37.875 6.328125 -43.609375 8.984375 -48.546875 C 11.648438 -53.484375 15.238281 -57.289062 19.75 -59.96875 C 24.269531 -62.65625 29.257812 -64 34.71875 -64 C 39.332031 -64 43.472656 -63.082031 47.140625 -61.25 C 50.804688 -59.414062 53.578125 -56.753906 55.453125 -53.265625 L 55.515625 -95.90625 Z M 37.96875 -10.734375 C 41.457031 -10.734375 44.609375 -11.578125 47.421875 -13.265625 C 50.234375 -14.953125 52.445312 -17.34375 54.0625 -20.4375 C 55.6875 -23.539062 56.5 -27.175781 56.5 -31.34375 C 56.5 -35.46875 55.6875 -39.085938 54.0625 -42.203125 C 52.445312 -45.328125 50.222656 -47.722656 47.390625 -49.390625 C 44.554688 -51.054688 41.414062 -51.890625 37.96875 -51.890625 C 34.507812 -51.890625 31.363281 -51.046875 28.53125 -49.359375 C 25.695312 -47.671875 23.457031 -45.265625 21.8125 -42.140625 C 20.175781 -39.023438 19.359375 -35.425781 19.359375 -31.34375 C 19.359375 -27.21875 20.175781 -23.59375 21.8125 -20.46875 C 23.457031 -17.351562 25.695312 -14.953125 28.53125 -13.265625 C 31.363281 -11.578125 34.507812 -10.734375 37.96875 -10.734375 Z M 37.96875 -10.734375 "/></g></g></g><g fill="#f5f7fd" fill-opacity="1"><g transform="translate(318.778614, 111.357635)"><g><path d="M 69.8125 -62.8125 L 69.8125 0 L 56.0625 0 L 55.703125 -10.046875 C 53.867188 -6.472656 51.078125 -3.664062 47.328125 -1.625 C 43.578125 0.414062 39.394531 1.4375 34.78125 1.4375 C 29.320312 1.4375 24.320312 0.09375 19.78125 -2.59375 C 15.25 -5.28125 11.648438 -9.097656 8.984375 -14.046875 C 6.328125 -19.003906 5 -24.769531 5 -31.34375 C 5 -37.875 6.328125 -43.609375 8.984375 -48.546875 C 11.648438 -53.484375 15.25 -57.289062 19.78125 -59.96875 C 24.320312 -62.65625 29.320312 -64 34.78125 -64 C 39.3125 -64 43.410156 -63.03125 47.078125 -61.09375 C 50.742188 -59.15625 53.535156 -56.484375 55.453125 -53.078125 L 55.453125 -62.8125 Z M 37.96875 -10.734375 C 41.414062 -10.734375 44.554688 -11.609375 47.390625 -13.359375 C 50.222656 -15.109375 52.445312 -17.550781 54.0625 -20.6875 C 55.6875 -23.832031 56.5 -27.382812 56.5 -31.34375 C 56.5 -35.300781 55.675781 -38.835938 54.03125 -41.953125 C 52.394531 -45.078125 50.160156 -47.515625 47.328125 -49.265625 C 44.492188 -51.015625 41.375 -51.890625 37.96875 -51.890625 C 34.507812 -51.890625 31.363281 -51.046875 28.53125 -49.359375 C 25.695312 -47.671875 23.457031 -45.265625 21.8125 -42.140625 C 20.175781 -39.023438 19.359375 -35.425781 19.359375 -31.34375 C 19.359375 -27.21875 20.175781 -23.59375 21.8125 -20.46875 C 23.457031 -17.351562 25.695312 -14.953125 28.53125 -13.265625 C 31.363281 -11.578125 34.507812 -10.734375 37.96875 -10.734375 Z M 37.96875 -10.734375 "/></g></g></g><g fill="#f5f7fd" fill-opacity="1"><g transform="translate(391.744125, 111.357635)"><g><path d="M 65.3125 -62.8125 L 65.3125 0.25 C 65.3125 19.894531 55.78125 29.71875 36.71875 29.71875 C 28.632812 29.71875 22.25 28.09375 17.5625 24.84375 C 12.882812 21.601562 9.816406 17.066406 8.359375 11.234375 L 20.921875 6.3125 C 21.921875 10.925781 23.695312 14.128906 26.25 15.921875 C 28.8125 17.710938 32.300781 18.609375 36.71875 18.609375 C 46.125 18.609375 50.828125 13.550781 50.828125 3.4375 L 50.828125 -8 C 48.703125 -5.25 46.015625 -3.132812 42.765625 -1.65625 C 39.523438 -0.175781 35.882812 0.5625 31.84375 0.5625 C 24.769531 0.5625 19.234375 -1.328125 15.234375 -5.109375 C 11.234375 -8.898438 9.234375 -14.253906 9.234375 -21.171875 L 9.234375 -62.8125 L 23.734375 -62.8125 L 23.734375 -24.28125 C 23.734375 -19.832031 24.894531 -16.535156 27.21875 -14.390625 C 29.550781 -12.242188 32.550781 -11.171875 36.21875 -11.171875 C 40.5 -11.171875 44.003906 -12.492188 46.734375 -15.140625 C 49.460938 -17.785156 50.828125 -21.851562 50.828125 -27.34375 L 50.828125 -62.8125 Z M 65.3125 -62.8125 "/></g></g></g><g fill="#ff914d" fill-opacity="1"><g transform="translate(460.155303, 111.357635)"><g><path d="M 44.640625 -64 C 50.097656 -64 55.082031 -62.65625 59.59375 -59.96875 C 64.113281 -57.289062 67.703125 -53.484375 70.359375 -48.546875 C 73.023438 -43.609375 74.359375 -37.875 74.359375 -31.34375 C 74.359375 -24.769531 73.035156 -19.003906 70.390625 -14.046875 C 67.753906 -9.097656 64.164062 -5.28125 59.625 -2.59375 C 55.09375 0.09375 50.097656 1.4375 44.640625 1.4375 C 39.898438 1.4375 35.675781 0.476562 31.96875 -1.4375 C 28.257812 -3.351562 25.492188 -6.117188 23.671875 -9.734375 L 23.296875 0 L 9.546875 0 L 9.546875 -95.90625 L 23.921875 -95.90625 L 23.921875 -53.390625 C 25.828125 -56.796875 28.601562 -59.414062 32.25 -61.25 C 35.894531 -63.082031 40.023438 -64 44.640625 -64 Z M 41.390625 -10.734375 C 44.847656 -10.734375 47.992188 -11.585938 50.828125 -13.296875 C 53.660156 -15.003906 55.894531 -17.414062 57.53125 -20.53125 C 59.175781 -23.65625 60 -27.257812 60 -31.34375 C 60 -35.425781 59.175781 -39.023438 57.53125 -42.140625 C 55.894531 -45.265625 53.660156 -47.671875 50.828125 -49.359375 C 47.992188 -51.046875 44.847656 -51.890625 41.390625 -51.890625 C 37.941406 -51.890625 34.800781 -51.054688 31.96875 -49.390625 C 29.132812 -47.722656 26.90625 -45.328125 25.28125 -42.203125 C 23.664062 -39.085938 22.859375 -35.46875 22.859375 -31.34375 C 22.859375 -27.175781 23.664062 -23.539062 25.28125 -20.4375 C 26.90625 -17.34375 29.125 -14.953125 31.9375 -13.265625 C 34.75 -11.578125 37.898438 -10.734375 41.390625 -10.734375 Z M 41.390625 -10.734375 "/></g></g></g><g fill="#ff914d" fill-opacity="1"><g transform="translate(533.120802, 111.357635)"><g><path d="M 23.421875 -52.390625 C 24.453125 -54.429688 25.988281 -56.289062 28.03125 -57.96875 C 30.070312 -59.65625 32.4375 -61 35.125 -62 C 37.8125 -63 40.628906 -63.5 43.578125 -63.5 L 43.578125 -50.390625 C 36.960938 -50.390625 32.039062 -48.984375 28.8125 -46.171875 C 25.59375 -43.359375 23.984375 -38.644531 23.984375 -32.03125 L 23.984375 0 L 9.546875 0 L 9.546875 -62.8125 L 23.421875 -62.8125 Z M 23.421875 -52.390625 "/></g></g></g><g fill="#ff914d" fill-opacity="1"><g transform="translate(572.181946, 111.357635)"><g><path d="M 66.9375 -28.84375 L 19.171875 -28.84375 C 19.335938 -24.8125 20.25 -21.410156 21.90625 -18.640625 C 23.570312 -15.867188 25.738281 -13.796875 28.40625 -12.421875 C 31.070312 -11.046875 34.050781 -10.359375 37.34375 -10.359375 C 40.832031 -10.359375 43.941406 -11.210938 46.671875 -12.921875 C 49.398438 -14.628906 51.472656 -17.066406 52.890625 -20.234375 L 66 -17.984375 C 63.832031 -11.941406 60.207031 -7.234375 55.125 -3.859375 C 50.050781 -0.492188 44.164062 1.1875 37.46875 1.1875 C 31.007812 1.1875 25.34375 -0.101562 20.46875 -2.6875 C 15.601562 -5.269531 11.816406 -9.015625 9.109375 -13.921875 C 6.410156 -18.835938 5.0625 -24.664062 5.0625 -31.40625 C 5.0625 -38.144531 6.421875 -43.96875 9.140625 -48.875 C 11.867188 -53.789062 15.644531 -57.550781 20.46875 -60.15625 C 25.300781 -62.757812 30.820312 -64.0625 37.03125 -64.0625 C 42.9375 -64.0625 48.132812 -62.894531 52.625 -60.5625 C 57.125 -58.226562 60.664062 -54.695312 63.25 -49.96875 C 65.832031 -45.25 67.125 -39.414062 67.125 -32.46875 Z M 37.09375 -53.390625 C 32.632812 -53.390625 28.914062 -52.285156 25.9375 -50.078125 C 22.96875 -47.867188 20.960938 -44.535156 19.921875 -40.078125 L 52.640625 -40.078125 C 52.015625 -44.453125 50.316406 -47.765625 47.546875 -50.015625 C 44.773438 -52.265625 41.289062 -53.390625 37.09375 -53.390625 Z M 37.09375 -53.390625 "/></g></g></g><g fill="#ff914d" fill-opacity="1"><g transform="translate(637.904526, 111.357635)"><g><path d="M 103.53125 -62.8125 L 81.734375 0.0625 L 68.5 0.0625 L 52.765625 -44.765625 L 36.90625 0.0625 L 23.546875 0.0625 L 2.125 -62.8125 L 16.984375 -62.8125 L 31.21875 -18.359375 L 47.140625 -62.8125 L 58.1875 -62.8125 L 74.046875 -18.421875 L 88.53125 -62.8125 Z M 103.53125 -62.8125 "/></g></g></g></svg>