<svg xmlns="http://www.w3.org/2000/svg" xmlns:xlink="http://www.w3.org/1999/xlink" width="1000" zoomAndPan="magnify" viewBox="0 0 750 149.999998" height="200" preserveAspectRatio="xMidYMid meet" version="1.0"><defs><g/><clipPath id="adf0d5416f"><rect x="0" width="737" y="0" height="150"/></clipPath></defs><rect x="-75" width="900" fill="#ffffff" y="-15" height="179.999997" fill-opacity="1"/><rect x="-75" width="900" fill="#ffffff" y="-15" height="179.999997" fill-opacity="1"/><g transform="matrix(1, 0, 0, 1, 6, -0.000000000000007527)"><g clip-path="url(#adf0d5416f)"><g fill="#49444b" fill-opacity="1"><g transform="translate(0.478409, 111.99254)"><g><path d="M 78.9375 -64 C 83.132812 -64 86.828125 -63.226562 90.015625 -61.6875 C 93.203125 -60.15625 95.679688 -57.890625 97.453125 -54.890625 C 99.222656 -51.890625 100.109375 -48.269531 100.109375 -44.03125 L 100.109375 0 L 85.671875 0 L 85.671875 -40.03125 C 85.671875 -44.0625 84.628906 -47.109375 82.546875 -49.171875 C 80.472656 -51.234375 77.851562 -52.265625 74.6875 -52.265625 C 70.9375 -52.265625 67.90625 -51.023438 65.59375 -48.546875 C 63.289062 -46.078125 62.140625 -42.257812 62.140625 -37.09375 L 62.140625 0 L 47.578125 0 L 47.578125 -39.71875 C 47.578125 -43.832031 46.523438 -46.953125 44.421875 -49.078125 C 42.328125 -51.203125 39.65625 -52.265625 36.40625 -52.265625 C 32.695312 -52.265625 29.675781 -50.984375 27.34375 -48.421875 C 25.019531 -45.867188 23.859375 -41.882812 23.859375 -36.46875 L 23.859375 0 L 9.546875 0 L 9.546875 -62.828125 L 23.859375 -62.828125 L 23.859375 -55.078125 C 25.859375 -57.953125 28.363281 -60.15625 31.375 -61.6875 C 34.394531 -63.226562 37.800781 -64 41.59375 -64 C 45.914062 -64 49.671875 -63.15625 52.859375 -61.46875 C 56.046875 -59.789062 58.429688 -57.347656 60.015625 -54.140625 C 62.054688 -57.390625 64.6875 -59.84375 67.90625 -61.5 C 71.132812 -63.164062 74.8125 -64 78.9375 -64 Z M 78.9375 -64 "/></g></g></g><g fill="#49444b" fill-opacity="1"><g transform="translate(102.671221, 111.99254)"><g><path d="M 37.96875 1.1875 C 31.632812 1.1875 25.957031 -0.132812 20.9375 -2.78125 C 15.925781 -5.425781 12.003906 -9.203125 9.171875 -14.109375 C 6.347656 -19.023438 4.9375 -24.8125 4.9375 -31.46875 C 4.9375 -38.050781 6.347656 -43.796875 9.171875 -48.703125 C 12.003906 -53.617188 15.914062 -57.394531 20.90625 -60.03125 C 25.90625 -62.675781 31.59375 -64 37.96875 -64 C 44.375 -64 50.078125 -62.675781 55.078125 -60.03125 C 60.078125 -57.394531 63.988281 -53.617188 66.8125 -48.703125 C 69.644531 -43.796875 71.0625 -38.050781 71.0625 -31.46875 C 71.0625 -24.8125 69.644531 -19.015625 66.8125 -14.078125 C 63.988281 -9.148438 60.066406 -5.375 55.046875 -2.75 C 50.023438 -0.125 44.332031 1.1875 37.96875 1.1875 Z M 37.84375 -10.421875 C 41.46875 -10.421875 44.710938 -11.296875 47.578125 -13.046875 C 50.453125 -14.796875 52.703125 -17.265625 54.328125 -20.453125 C 55.953125 -23.640625 56.765625 -27.3125 56.765625 -31.46875 C 56.765625 -35.632812 55.953125 -39.296875 54.328125 -42.453125 C 52.703125 -45.617188 50.453125 -48.078125 47.578125 -49.828125 C 44.710938 -51.578125 41.46875 -52.453125 37.84375 -52.453125 C 34.257812 -52.453125 31.0625 -51.578125 28.25 -49.828125 C 25.445312 -48.078125 23.242188 -45.617188 21.640625 -42.453125 C 20.035156 -39.296875 19.234375 -35.632812 19.234375 -31.46875 C 19.234375 -27.3125 20.035156 -23.640625 21.640625 -20.453125 C 23.242188 -17.265625 25.445312 -14.796875 28.25 -13.046875 C 31.0625 -11.296875 34.257812 -10.421875 37.84375 -10.421875 Z M 37.84375 -10.421875 "/></g></g></g><g fill="#49444b" fill-opacity="1"><g transform="translate(172.269136, 111.99254)"><g><path d="M 42.96875 -64 C 50.039062 -64 55.570312 -62.101562 59.5625 -58.3125 C 63.5625 -54.53125 65.5625 -49.1875 65.5625 -42.28125 L 65.5625 0 L 51.078125 0 L 51.078125 -39.15625 C 51.078125 -43.601562 49.921875 -46.898438 47.609375 -49.046875 C 45.304688 -51.191406 42.34375 -52.265625 38.71875 -52.265625 C 34.382812 -52.265625 30.84375 -50.941406 28.09375 -48.296875 C 25.351562 -45.660156 23.960938 -41.59375 23.921875 -36.09375 L 23.921875 0 L 9.546875 0 L 9.546875 -62.828125 L 23.921875 -62.828125 L 23.921875 -55.390625 C 26.046875 -58.140625 28.738281 -60.257812 32 -61.75 C 35.269531 -63.25 38.925781 -64 42.96875 -64 Z M 42.96875 -64 "/></g></g></g><g fill="#49444b" fill-opacity="1"><g transform="translate(239.806455, 111.99254)"><g><path d="M 69.8125 -95.921875 L 69.8125 0 L 56.078125 0 L 55.703125 -9.796875 C 53.910156 -6.179688 51.148438 -3.40625 47.421875 -1.46875 C 43.703125 0.46875 39.46875 1.4375 34.71875 1.4375 C 29.269531 1.4375 24.273438 0.09375 19.734375 -2.59375 C 15.191406 -5.28125 11.597656 -9.097656 8.953125 -14.046875 C 6.316406 -19.003906 5 -24.769531 5 -31.34375 C 5 -37.882812 6.328125 -43.617188 8.984375 -48.546875 C 11.648438 -53.484375 15.242188 -57.289062 19.765625 -59.96875 C 24.285156 -62.65625 29.269531 -64 34.71875 -64 C 39.34375 -64 43.484375 -63.082031 47.140625 -61.25 C 50.804688 -59.425781 53.578125 -56.765625 55.453125 -53.265625 L 55.515625 -95.921875 Z M 37.96875 -10.734375 C 41.46875 -10.734375 44.617188 -11.578125 47.421875 -13.265625 C 50.234375 -14.953125 52.453125 -17.347656 54.078125 -20.453125 C 55.703125 -23.554688 56.515625 -27.1875 56.515625 -31.34375 C 56.515625 -35.46875 55.703125 -39.085938 54.078125 -42.203125 C 52.453125 -45.328125 50.222656 -47.722656 47.390625 -49.390625 C 44.566406 -51.054688 41.425781 -51.890625 37.96875 -51.890625 C 34.507812 -51.890625 31.363281 -51.046875 28.53125 -49.359375 C 25.707031 -47.671875 23.472656 -45.265625 21.828125 -42.140625 C 20.179688 -39.023438 19.359375 -35.425781 19.359375 -31.34375 C 19.359375 -27.226562 20.179688 -23.609375 21.828125 -20.484375 C 23.472656 -17.359375 25.707031 -14.953125 28.53125 -13.265625 C 31.363281 -11.578125 34.507812 -10.734375 37.96875 -10.734375 Z M 37.96875 -10.734375 "/></g></g></g><g fill="#49444b" fill-opacity="1"><g transform="translate(312.776245, 111.99254)"><g><path d="M 69.8125 -62.828125 L 69.8125 0 L 56.078125 0 L 55.703125 -10.046875 C 53.867188 -6.472656 51.078125 -3.664062 47.328125 -1.625 C 43.585938 0.414062 39.40625 1.4375 34.78125 1.4375 C 29.332031 1.4375 24.335938 0.09375 19.796875 -2.59375 C 15.253906 -5.28125 11.648438 -9.097656 8.984375 -14.046875 C 6.328125 -19.003906 5 -24.769531 5 -31.34375 C 5 -37.882812 6.328125 -43.617188 8.984375 -48.546875 C 11.648438 -53.484375 15.253906 -57.289062 19.796875 -59.96875 C 24.335938 -62.65625 29.332031 -64 34.78125 -64 C 39.320312 -64 43.421875 -63.03125 47.078125 -61.09375 C 50.742188 -59.164062 53.535156 -56.492188 55.453125 -53.078125 L 55.453125 -62.828125 Z M 37.96875 -10.734375 C 41.425781 -10.734375 44.566406 -11.609375 47.390625 -13.359375 C 50.222656 -15.109375 52.453125 -17.554688 54.078125 -20.703125 C 55.703125 -23.847656 56.515625 -27.394531 56.515625 -31.34375 C 56.515625 -35.300781 55.691406 -38.835938 54.046875 -41.953125 C 52.398438 -45.078125 50.160156 -47.515625 47.328125 -49.265625 C 44.503906 -51.015625 41.382812 -51.890625 37.96875 -51.890625 C 34.507812 -51.890625 31.363281 -51.046875 28.53125 -49.359375 C 25.707031 -47.671875 23.472656 -45.265625 21.828125 -42.140625 C 20.179688 -39.023438 19.359375 -35.425781 19.359375 -31.34375 C 19.359375 -27.226562 20.179688 -23.609375 21.828125 -20.484375 C 23.472656 -17.359375 25.707031 -14.953125 28.53125 -13.265625 C 31.363281 -11.578125 34.507812 -10.734375 37.96875 -10.734375 Z M 37.96875 -10.734375 "/></g></g></g><g fill="#49444b" fill-opacity="1"><g transform="translate(385.746058, 111.99254)"><g><path d="M 65.3125 -62.828125 L 65.3125 0.25 C 65.3125 19.894531 55.78125 29.71875 36.71875 29.71875 C 28.644531 29.71875 22.265625 28.09375 17.578125 24.84375 C 12.890625 21.601562 9.820312 17.066406 8.375 11.234375 L 20.921875 6.3125 C 21.921875 10.925781 23.695312 14.128906 26.25 15.921875 C 28.8125 17.710938 32.300781 18.609375 36.71875 18.609375 C 46.125 18.609375 50.828125 13.550781 50.828125 3.4375 L 50.828125 -8 C 48.703125 -5.25 46.015625 -3.132812 42.765625 -1.65625 C 39.523438 -0.175781 35.882812 0.5625 31.84375 0.5625 C 24.769531 0.5625 19.234375 -1.328125 15.234375 -5.109375 C 11.234375 -8.898438 9.234375 -14.253906 9.234375 -21.171875 L 9.234375 -62.828125 L 23.734375 -62.828125 L 23.734375 -24.296875 C 23.734375 -19.835938 24.894531 -16.535156 27.21875 -14.390625 C 29.550781 -12.242188 32.550781 -11.171875 36.21875 -11.171875 C 40.507812 -11.171875 44.015625 -12.492188 46.734375 -15.140625 C 49.460938 -17.785156 50.828125 -21.859375 50.828125 -27.359375 L 50.828125 -62.828125 Z M 65.3125 -62.828125 "/></g></g></g><g fill="#ff914d" fill-opacity="1"><g transform="translate(454.164235, 111.99254)"><g><path d="M 44.65625 -64 C 50.101562 -64 55.082031 -62.65625 59.59375 -59.96875 C 64.113281 -57.289062 67.707031 -53.484375 70.375 -48.546875 C 73.039062 -43.617188 74.375 -37.882812 74.375 -31.34375 C 74.375 -24.769531 73.050781 -19.003906 70.40625 -14.046875 C 67.757812 -9.097656 64.164062 -5.28125 59.625 -2.59375 C 55.09375 0.09375 50.101562 1.4375 44.65625 1.4375 C 39.90625 1.4375 35.675781 0.476562 31.96875 -1.4375 C 28.269531 -3.351562 25.503906 -6.117188 23.671875 -9.734375 L 23.296875 0 L 9.546875 0 L 9.546875 -95.921875 L 23.921875 -95.921875 L 23.921875 -53.390625 C 25.835938 -56.804688 28.613281 -59.425781 32.25 -61.25 C 35.894531 -63.082031 40.03125 -64 44.65625 -64 Z M 41.40625 -10.734375 C 44.851562 -10.734375 47.992188 -11.585938 50.828125 -13.296875 C 53.660156 -15.003906 55.898438 -17.421875 57.546875 -20.546875 C 59.191406 -23.671875 60.015625 -27.269531 60.015625 -31.34375 C 60.015625 -35.425781 59.191406 -39.023438 57.546875 -42.140625 C 55.898438 -45.265625 53.660156 -47.671875 50.828125 -49.359375 C 47.992188 -51.046875 44.851562 -51.890625 41.40625 -51.890625 C 37.945312 -51.890625 34.800781 -51.054688 31.96875 -49.390625 C 29.132812 -47.722656 26.90625 -45.328125 25.28125 -42.203125 C 23.664062 -39.085938 22.859375 -35.46875 22.859375 -31.34375 C 22.859375 -27.1875 23.664062 -23.554688 25.28125 -20.453125 C 26.90625 -17.347656 29.125 -14.953125 31.9375 -13.265625 C 34.75 -11.578125 37.90625 -10.734375 41.40625 -10.734375 Z M 41.40625 -10.734375 "/></g></g></g><g fill="#ff914d" fill-opacity="1"><g transform="translate(527.134036, 111.99254)"><g><path d="M 23.421875 -52.390625 C 24.460938 -54.429688 26 -56.296875 28.03125 -57.984375 C 30.070312 -59.671875 32.4375 -61.015625 35.125 -62.015625 C 37.8125 -63.015625 40.632812 -63.515625 43.59375 -63.515625 L 43.59375 -50.390625 C 36.96875 -50.390625 32.039062 -48.984375 28.8125 -46.171875 C 25.59375 -43.367188 23.984375 -38.65625 23.984375 -32.03125 L 23.984375 0 L 9.546875 0 L 9.546875 -62.828125 L 23.421875 -62.828125 Z M 23.421875 -52.390625 "/></g></g></g><g fill="#ff914d" fill-opacity="1"><g transform="translate(566.197653, 111.99254)"><g><path d="M 66.9375 -28.84375 L 19.171875 -28.84375 C 19.335938 -24.8125 20.253906 -21.410156 21.921875 -18.640625 C 23.585938 -15.867188 25.75 -13.796875 28.40625 -12.421875 C 31.070312 -11.046875 34.050781 -10.359375 37.34375 -10.359375 C 40.84375 -10.359375 43.953125 -11.210938 46.671875 -12.921875 C 49.398438 -14.628906 51.472656 -17.066406 52.890625 -20.234375 L 66 -17.984375 C 63.84375 -11.953125 60.222656 -7.25 55.140625 -3.875 C 50.054688 -0.5 44.164062 1.1875 37.46875 1.1875 C 31.007812 1.1875 25.34375 -0.101562 20.46875 -2.6875 C 15.601562 -5.269531 11.816406 -9.015625 9.109375 -13.921875 C 6.410156 -18.835938 5.0625 -24.664062 5.0625 -31.40625 C 5.0625 -38.15625 6.421875 -43.984375 9.140625 -48.890625 C 11.867188 -53.804688 15.644531 -57.5625 20.46875 -60.15625 C 25.300781 -62.757812 30.820312 -64.0625 37.03125 -64.0625 C 42.9375 -64.0625 48.140625 -62.894531 52.640625 -60.5625 C 57.140625 -58.238281 60.675781 -54.710938 63.25 -49.984375 C 65.832031 -45.265625 67.125 -39.425781 67.125 -32.46875 Z M 37.09375 -53.390625 C 32.632812 -53.390625 28.914062 -52.285156 25.9375 -50.078125 C 22.96875 -47.867188 20.960938 -44.539062 19.921875 -40.09375 L 52.640625 -40.09375 C 52.015625 -44.457031 50.316406 -47.765625 47.546875 -50.015625 C 44.785156 -52.265625 41.300781 -53.390625 37.09375 -53.390625 Z M 37.09375 -53.390625 "/></g></g></g><g fill="#ff914d" fill-opacity="1"><g transform="translate(631.924144, 111.99254)"><g><path d="M 103.53125 -62.828125 L 81.75 0.0625 L 68.5 0.0625 L 52.765625 -44.78125 L 36.90625 0.0625 L 23.546875 0.0625 L 2.125 -62.828125 L 16.984375 -62.828125 L 31.21875 -18.359375 L 47.140625 -62.828125 L 58.203125 -62.828125 L 74.0625 -18.421875 L 88.546875 -62.828125 Z M 103.53125 -62.828125 "/></g></g></g></g></g></svg>